<svg xmlns="http://www.w3.org/2000/svg" width="45" height="45" viewBox="0 0 45 45" fill="none">
  <path d="M19.5 31.75H23V28.25H19.5V31.75ZM21.25 3.75C11.59 3.75 3.75 11.59 3.75 21.25C3.75 30.91 11.59 38.75 21.25 38.75C30.91 38.75 38.75 30.91 38.75 21.25C38.75 11.59 30.91 3.75 21.25 3.75ZM21.25 35.25C13.5325 35.25 7.25 28.9675 7.25 21.25C7.25 13.5325 13.5325 7.25 21.25 7.25C28.9675 7.25 35.25 13.5325 35.25 21.25C35.25 28.9675 28.9675 35.25 21.25 35.25ZM21.25 10.75C17.3825 10.75 14.25 13.8825 14.25 17.75H17.75C17.75 15.825 19.325 14.25 21.25 14.25C23.175 14.25 24.75 15.825 24.75 17.75C24.75 21.25 19.5 20.8125 19.5 26.5H23C23 22.5625 28.25 22.125 28.25 17.75C28.25 13.8825 25.1175 10.75 21.25 10.75Z" fill="black"/>
</svg>