<svg xmlns="http://www.w3.org/2000/svg" width="37" height="37" viewBox="0 0 37 37" fill="none">
  <path d="M27.75 12.3334H26.2083V9.25002C26.2083 4.99502 22.755 1.54169 18.5 1.54169C14.245 1.54169 10.7917 4.99502 10.7917 9.25002V12.3334H9.24999C7.55416 12.3334 6.16666 13.7209 6.16666 15.4167V30.8334C6.16666 32.5292 7.55416 33.9167 9.24999 33.9167H27.75C29.4458 33.9167 30.8333 32.5292 30.8333 30.8334V15.4167C30.8333 13.7209 29.4458 12.3334 27.75 12.3334ZM13.875 9.25002C13.875 6.69085 15.9408 4.62502 18.5 4.62502C21.0592 4.62502 23.125 6.69085 23.125 9.25002V12.3334H13.875V9.25002ZM27.75 30.8334H9.24999V15.4167H27.75V30.8334ZM18.5 26.2084C20.1958 26.2084 21.5833 24.8209 21.5833 23.125C21.5833 21.4292 20.1958 20.0417 18.5 20.0417C16.8042 20.0417 15.4167 21.4292 15.4167 23.125C15.4167 24.8209 16.8042 26.2084 18.5 26.2084Z" fill="black"/>
</svg>