<svg xmlns="http://www.w3.org/2000/svg" width="38" height="37" viewBox="0 0 38 37" fill="none">
  <path d="M19.0001 12.3333C20.6959 12.3333 22.0834 10.9458 22.0834 9.25001C22.0834 7.55417 20.6959 6.16667 19.0001 6.16667C17.3042 6.16667 15.9167 7.55417 15.9167 9.25001C15.9167 10.9458 17.3042 12.3333 19.0001 12.3333ZM19.0001 15.4167C17.3042 15.4167 15.9167 16.8042 15.9167 18.5C15.9167 20.1958 17.3042 21.5833 19.0001 21.5833C20.6959 21.5833 22.0834 20.1958 22.0834 18.5C22.0834 16.8042 20.6959 15.4167 19.0001 15.4167ZM19.0001 24.6667C17.3042 24.6667 15.9167 26.0542 15.9167 27.75C15.9167 29.4458 17.3042 30.8333 19.0001 30.8333C20.6959 30.8333 22.0834 29.4458 22.0834 27.75C22.0834 26.0542 20.6959 24.6667 19.0001 24.6667Z" fill="#777777"/>
</svg>