<svg xmlns="http://www.w3.org/2000/svg" width="37" height="37" viewBox="0 0 37 37" fill="none">
  <path d="M10.0825 7.70833C10.175 9.08042 10.4062 10.4217 10.7762 11.7013L8.92625 13.5512C8.29417 11.7012 7.89333 9.74333 7.75458 7.70833H10.0825ZM25.2833 26.2392C26.5937 26.6092 27.935 26.8404 29.2917 26.9329V29.23C27.2567 29.0912 25.2987 28.6904 23.4333 28.0737L25.2833 26.2392ZM11.5625 4.625H6.16667C5.31875 4.625 4.625 5.31875 4.625 6.16667C4.625 20.6429 16.3571 32.375 30.8333 32.375C31.6812 32.375 32.375 31.6812 32.375 30.8333V25.4529C32.375 24.605 31.6812 23.9112 30.8333 23.9112C28.9217 23.9112 27.0562 23.6029 25.3296 23.0325C25.1754 22.9708 25.0058 22.9554 24.8517 22.9554C24.4508 22.9554 24.0654 23.1096 23.7571 23.4025L20.3654 26.7942C16.0025 24.5587 12.4258 20.9975 10.2058 16.6346L13.5975 13.2429C14.0292 12.8113 14.1525 12.21 13.9829 11.6704C13.4125 9.94375 13.1042 8.09375 13.1042 6.16667C13.1042 5.31875 12.4104 4.625 11.5625 4.625Z" fill="black"/>
</svg>