<svg xmlns="http://www.w3.org/2000/svg" width="47" height="47" viewBox="0 0 47 47" fill="none">
  <g clip-path="url(#clip0_3_178)">
    <path d="M23 0C10.58 0 0.5 10.08 0.5 22.5C0.5 34.92 10.58 45 23 45C35.42 45 45.5 34.92 45.5 22.5C45.5 10.08 35.42 0 23 0ZM23 9C27.3425 9 30.875 12.5325 30.875 16.875C30.875 21.2175 27.3425 24.75 23 24.75C18.6575 24.75 15.125 21.2175 15.125 16.875C15.125 12.5325 18.6575 9 23 9ZM23 40.5C18.4325 40.5 13.0325 38.655 9.185 34.02C12.9875 31.05 17.78 29.25 23 29.25C28.22 29.25 33.0125 31.05 36.815 34.02C32.9675 38.655 27.5675 40.5 23 40.5Z" fill="#1877F2"/>
  </g>
  <defs>
    <clipPath id="clip0_3_178">
      <rect width="47" height="47" fill="white" transform="translate(0.5)"/>
    </clipPath>
  </defs>
</svg>