<svg xmlns="http://www.w3.org/2000/svg" width="45" height="45" viewBox="0 0 45 45" fill="none">
  <path d="M34.6336 23.5438L34.5348 24.2646L35.1128 24.7065L38.6051 27.3768L35.331 32.8837L31.1358 31.2446L30.4855 30.9905L29.9281 31.4109C29.0933 32.0406 28.179 32.5667 27.185 32.9601L26.5123 33.2263L26.4079 33.9422L25.7803 38.25H19.1834L18.5557 33.9422L18.4514 33.2263L17.7787 32.9601C16.7909 32.5692 15.8919 32.0439 15.0259 31.4037L14.4708 30.9934L13.8279 31.2446L9.63265 32.8837L6.35945 27.3783L9.88365 24.7101L10.4895 24.2514L10.3612 23.5024C10.2826 23.0439 10.248 22.5161 10.248 22C10.248 21.5352 10.3106 21.0116 10.3987 20.4976L10.527 19.7486L9.92113 19.2899L6.39627 16.6212L9.65199 11.1165L13.8467 12.7554L14.4872 13.0057L15.0415 12.5986C15.894 11.9724 16.8126 11.4296 17.7974 11.0399L18.4702 10.7737L18.5745 10.0578L19.2022 5.75H25.799L26.4267 10.0578L26.531 10.7737L27.2037 11.0399C28.1915 11.4308 29.0906 11.9561 29.9565 12.5963L30.5116 13.0066L31.1545 12.7554L35.3498 11.1163L38.623 16.6217L35.0988 19.2899L34.4929 19.7486L34.6212 20.4976C34.6999 20.957 34.7345 21.4668 34.7345 22C34.7345 22.5489 34.7003 23.0571 34.6336 23.5438ZM6.07998 27.5898C6.07964 27.5901 6.07931 27.5904 6.07897 27.5906L6.07931 27.5904L6.07998 27.5898ZM38.9031 16.4096L38.9028 16.4099C38.903 16.4097 38.9032 16.4095 38.9035 16.4094L38.9031 16.4096ZM14.4946 22C14.4946 26.3321 18.123 29.8125 22.4912 29.8125C26.8594 29.8125 30.4878 26.3321 30.4878 22C30.4878 17.6679 26.8594 14.1875 22.4912 14.1875C18.123 14.1875 14.4946 17.6679 14.4946 22Z" fill="white" stroke="black" stroke-width="2.5"/>
</svg>